PathFileType	4	(X/Y/Z)	C:/Users/opensim2020/Desktop/walking_exp_matlab/subject06_walking16_straight_01.trc																																																																																																																																																							
DataRate	CameraRate	NumFrames	NumMarkers	Units	OrigDataRate	OrigDataStartFrame	OrigNumFrames																																																																																																																																																			
100	100	4	51	mm	100	1037	333																																																																																																																																																			
Frame#	Time	LFHD			RFHD			LBHD			RBHD			C7			T10			CLAV			STRN			RBAK			LSHO			LUPA			LELB			LFRM			LWRA			LWRB			LFIN			RSHO			RUPA			RELB			RFRM			RWRA			RWRB			RFIN			LASI			RASI			LPSI			RPSI			LTHI			LKNE			LTIB			LANK			LHEE			LTOE			RTHI			RKNE			RTIB			RANK			RHEE			RTOE			*39			*40			*41			*42			*43			*44			*45			*46			*47			*48			*49			*50		
		X1	Y1	Z1	X2	Y2	Z2	X3	Y3	Z3	X4	Y4	Z4	X5	Y5	Z5	X6	Y6	Z6	X7	Y7	Z7	X8	Y8	Z8	X9	Y9	Z9	X10	Y10	Z10	X11	Y11	Z11	X12	Y12	Z12	X13	Y13	Z13	X14	Y14	Z14	X15	Y15	Z15	X16	Y16	Z16	X17	Y17	Z17	X18	Y18	Z18	X19	Y19	Z19	X20	Y20	Z20	X21	Y21	Z21	X22	Y22	Z22	X23	Y23	Z23	X24	Y24	Z24	X25	Y25	Z25	X26	Y26	Z26	X27	Y27	Z27	X28	Y28	Z28	X29	Y29	Z29	X30	Y30	Z30	X31	Y31	Z31	X32	Y32	Z32	X33	Y33	Z33	X34	Y34	Z34	X35	Y35	Z35	X36	Y36	Z36	X37	Y37	Z37	X38	Y38	Z38	X39	Y39	Z39	X40	Y40	Z40	X41	Y41	Z41	X42	Y42	Z42	X43	Y43	Z43	X44	Y44	Z44	X45	Y45	Z45	X46	Y46	Z46	X47	Y47	Z47	X48	Y48	Z48	X49	Y49	Z49	X50	Y50	Z50	X51	Y51	Z51
																																																																																																																																																										
167	1.66	-28.02968	1674.28271	-1040.10242	-34.12939	1657.35413	-909.28088	-160.78029	1620.92273	-1049.46753	-165.40002	1609.19006	-920.73096	-166.17087	1461.41077	-993.41119	-211.0694	1133.92419	-982.09991	-58.52129	1382.00793	-994.16553	-23.65165	1205.26855	-1000.45044	-242.01953	1293.63196	-909.64893	-116.28423	1413.55188	-1154.84155	-124.5064	1210.84668	-1225.98608	-130.38588	1098.53699	-1236.89258	-96.79505	951.95911	-1260.41638	-25.06488	843.38007	-1222.09937	-86.9251	832.64069	-1255.70862	-36.45683	756.87982	-1260.08936	-97.56371	1415.13928	-832.60168	-123.98908	1215.0481	-743.7854	-107.63008	1094.11401	-732.02991	-83.11532	976.1698	-715.73206	-15.692	841.8941	-749.40747	-67.98048	839.14697	-707.0697	-24.4431	766.66858	-706.62976	-38.79621	972.73254	-1097.75378	-31.26769	974.66284	-878.20367	-195.76605	998.03601	-1066.21411	-183.34286	1002.50836	-898.0354	-63.68422	657.64288	-1160.53528	-30.74601	497.97165	-1139.55225	-163.99928	286.00876	-1126.31433	-238.09872	130.49384	-1085.99023	-273.17062	127.45762	-1032.84558	-123.56379	50.03252	-1110.15356	-92.95187	639.52771	-829.3761	-94.70476	514.29559	-854.19745	-144.43207	251.94565	-863.93329	-155.56	67.0639	-915.24622	-193.91325	43.4924	-961.34882	-2.57497	33.00316	-912.01447	-130.51917	1710.33081	-984.29236	NaN	NaN	NaN	NaN	NaN	NaN	NaN	NaN	NaN	NaN	NaN	NaN	NaN	NaN	NaN	NaN	NaN	NaN	NaN	NaN	NaN	NaN	NaN	NaN	NaN	NaN	NaN	NaN	NaN	NaN	NaN	NaN	NaN
168	1.67	-21.41161	1673.97998	-1040.0105	-27.62744	1657.38281	-909.22919	-154.35324	1620.68079	-1049.30188	-158.87766	1609.1897	-920.54059	-159.92799	1461.3374	-992.6452	-204.94879	1133.91772	-981.1123	-52.28136	1381.85278	-993.64032	-17.51593	1205.11499	-999.59393	-235.80446	1293.76807	-908.51636	-110.78734	1413.05286	-1154.18396	-120.85017	1210.52844	-1225.36804	-127.66457	1098.19897	-1236.17529	-95.58214	951.30121	-1259.82739	-24.24923	842.32422	-1222.26111	-86.89478	831.8587	-1255.16431	-37.3269	755.64709	-1259.91333	-90.89126	1415.19031	-832.00696	-116.88132	1215.19141	-742.79596	-100.2716	1094.28992	-730.97968	-75.01641	976.52039	-714.92975	-6.82731	842.75482	-749.13086	-58.57836	839.47888	-706.67975	-14.78081	767.44568	-706.32629	-32.41653	972.93628	-1096.81665	-25.3204	974.58289	-877.4248	-189.55646	998.02216	-1065.65002	-177.45801	1002.30536	-897.42572	-56.18675	658.51343	-1160.26172	-21.05186	498.82007	-1138.31494	-148.0616	282.49347	-1125.63037	-216.28189	124.10886	-1085.61145	-250.87645	119.42414	-1032.71667	-97.91206	48.80841	-1110.29358	-88.89903	639.27838	-829.13971	-91.8535	513.98486	-854.03845	-143.12404	251.92554	-863.84033	-155.33804	67.07048	-915.44684	-194.01018	43.75909	-961.33911	-2.50314	32.92039	-911.95001	-124.02845	1710.19714	-984.30273	NaN	NaN	NaN	NaN	NaN	NaN	NaN	NaN	NaN	NaN	NaN	NaN	NaN	NaN	NaN	NaN	NaN	NaN	NaN	NaN	NaN	NaN	NaN	NaN	NaN	NaN	NaN	NaN	NaN	NaN	NaN	NaN	NaN
169	1.68	-15.41325	1673.64441	-1040.03918	-21.14813	1657.27039	-909.21082	-147.86702	1620.35962	-1049.2063	-152.42508	1609.1272	-920.3576	-153.45848	1461.17407	-991.95715	-198.83124	1133.83386	-980.16089	-46.04832	1381.60083	-993.11725	-11.4172	1204.90369	-998.82483	-229.30548	1293.98425	-907.32739	-105.26231	1412.45313	-1153.56543	-117.25095	1210.00537	-1224.6521	-124.89008	1097.80627	-1235.31262	-94.63461	950.63916	-1259.32983	-24.38253	840.63837	-1222.11133	-87.04089	831.03156	-1254.50708	-38.09249	754.42145	-1259.87939	-84.19798	1415.18958	-831.44598	-109.78415	1215.29541	-741.86316	-93.03297	1094.40784	-729.97699	-66.9287	976.81525	-714.14636	1.97184	843.59247	-749.00208	-49.39699	840.05878	-706.00592	-5.18764	768.19855	-706.24036	-26.10423	973.01648	-1095.86377	-19.62984	974.19849	-876.49396	-183.24194	997.97449	-1065.13782	-171.73746	1002.10675	-896.88586	-46.96959	658.6853	-1159.85657	-11.701	499.51511	-1137.16528	-132.01231	278.94299	-1124.7865	-194.13664	117.85476	-1085.11169	-228.51109	111.74952	-1032.28943	-72.76789	47.35095	-1110.05457	-84.91691	638.98505	-828.86456	-89.04926	513.81348	-853.53308	-141.73488	251.92633	-863.70691	-155.1853	67.19065	-915.52649	-194.0041	43.93163	-961.45819	-2.4301	32.83935	-911.85785	-117.55012	1709.99976	-984.35858	NaN	NaN	NaN	NaN	NaN	NaN	NaN	NaN	NaN	NaN	NaN	NaN	NaN	NaN	NaN	NaN	NaN	NaN	NaN	NaN	NaN	NaN	NaN	NaN	NaN	NaN	NaN	NaN	NaN	NaN	NaN	NaN	NaN
170	1.69	-8.86158	1673.02161	-1040.04993	-14.6816	1657.11572	-909.20026	-141.35738	1619.97363	-1049.07886	-145.91154	1608.995	-920.26099	-147.28505	1461.01147	-991.27582	-192.68289	1133.64429	-979.35388	-39.80897	1381.28516	-992.68658	-5.28022	1204.5791	-998.1228	-222.89044	1294.06262	-906.25427	-99.96258	1411.90613	-1153.02881	-113.55122	1209.32568	-1223.72791	-122.00505	1097.38367	-1234.38696	-93.48222	949.88214	-1258.62927	-24.12727	839.16876	-1222.04578	-87.14733	830.10004	-1253.59668	-39.1504	753.14233	-1259.72424	-77.43509	1415.08264	-830.97559	-102.74821	1215.33313	-740.98846	-85.7692	1094.47485	-729.02728	-58.96328	977.05054	-713.44867	10.6307	844.3963	-748.96954	-40.48172	840.34106	-705.78577	4.35289	768.9588	-706.20544	-19.68611	973.00543	-1094.8894	-13.7929	973.89026	-875.69995	-176.97348	997.87347	-1064.73853	-165.93245	1001.86694	-896.38391	-38.77868	658.95721	-1159.43689	-2.45749	500.07288	-1136.15417	-115.75276	275.33441	-1123.97754	-171.67473	111.88405	-1084.66882	-205.64255	104.34743	-1031.80029	-47.78742	46.04499	-1109.66199	-80.95918	638.67126	-828.59308	-86.02644	513.41541	-853.0166	-140.42693	251.86823	-863.6441	-155.07352	67.31662	-915.56897	-193.30586	43.65778	-961.62384	-2.38697	32.75617	-911.74188	-111.03477	1709.79761	-984.43597	NaN	NaN	NaN	NaN	NaN	NaN	NaN	NaN	NaN	NaN	NaN	NaN	NaN	NaN	NaN	NaN	NaN	NaN	NaN	NaN	NaN	NaN	NaN	NaN	NaN	NaN	NaN	NaN	NaN	NaN	NaN	NaN	NaN
